<?xml version="1.0" standalone="no"?>
<!DOCTYPE svg PUBLIC "-//W3C//DTD SVG 1.1//EN" "http://www.w3.org/Graphics/SVG/1.1/DTD/svg11.dtd" >
<svg xmlns="http://www.w3.org/2000/svg" xmlns:xlink="http://www.w3.org/1999/xlink" version="1.1">
<metadata></metadata>
<defs>
<font id="dos_system_fontregular" horiz-adv-x="512" >
<font-face units-per-em="1024" ascent="819" descent="-205" />
<missing-glyph horiz-adv-x="500" />
<glyph />
<glyph />
<glyph unicode=" " />
<glyph unicode="!" d="M128 0v128h128v-128h-128zM128 192v128h-64v192h64v64h128v-64h64v-192h-64v-128h-128z" />
<glyph unicode="&#x22;" d="M128 320v64h-64v192h128v-256h-64zM320 320v256h128v-192h-64v-64h-64z" />
<glyph unicode="#" d="M256 192v192h-64v-192h64zM64 0v128h-64v64h64v192h-64v64h64v128h128v-128h64v128h128v-128h64v-64h-64v-192h64v-64h-64v-128h-128v128h-64v-128h-128z" />
<glyph unicode="$" d="M128 -64v128h-128v64h256v128h-192v64h-64v128h64v64h64v128h128v-128h128v-64h-256v-128h192v-64h64v-128h-64v-64h-64v-128h-128z" />
<glyph unicode="%" d="M256 0v128h128v-128h-128zM0 320v128h128v-128h-128zM0 0v128h64v64h64v64h64v64h64v64h64v64h64v-128h-64v-64h-64v-64h-64v-64h-64v-64h-64v-64h-64z" />
<glyph unicode="&#x26;" d="M192 64v64h64v64h-64v64h-64v-192h64zM192 384v128h-64v-128h64zM64 0v64h-64v256h64v64h-64v128h64v64h192v-64h64v-128h-64v-64h64v-64h64v64h64v-128h-64v-128h64v-64h-128v64h-64v-64h-192z" />
<glyph unicode="'" d="M64 320v64h64v192h128v-192h-64v-64h-128z" />
<glyph unicode="(" d="M256 0v64h-64v64h-64v64h-64v192h64v64h64v64h64v64h128v-64h-64v-64h-64v-64h-64v-192h64v-64h64v-64h64v-64h-128z" />
<glyph unicode=")" d="M64 0v64h64v64h64v64h64v192h-64v64h-64v64h-64v64h128v-64h64v-64h64v-64h64v-192h-64v-64h-64v-64h-64v-64h-128z" />
<glyph unicode="*" d="M64 128v64h64v64h-128v64h128v64h-64v64h128v-64h128v64h128v-64h-64v-64h128v-64h-128v-64h64v-64h-128v64h-128v-64h-128z" />
<glyph unicode="+" d="M192 128v128h-128v64h128v128h128v-128h128v-64h-128v-128h-128z" />
<glyph unicode="," d="M128 -64v64h64v128h192v-128h-128v-64h-128z" />
<glyph unicode="-" d="M0 256v64h448v-64h-448z" />
<glyph unicode="." d="M192 0v128h192v-128h-192z" />
<glyph unicode="/" d="M0 0v128h64v64h64v64h64v64h64v64h64v64h64v64h64v-128h-64v-64h-64v-64h-64v-64h-64v-64h-64v-64h-64v-64h-64z" />
<glyph unicode="0" d="M320 64v256h-64v-128h-64v-64h-64v-64h192zM192 256v128h64v64h64v64h-192v-256h64zM64 0v64h-64v448h64v64h320v-64h64v-448h-64v-64h-320z" />
<glyph unicode="1" d="M0 0v64h128v320h-128v64h128v64h64v64h64v-512h128v-64h-384z" />
<glyph unicode="2" d="M0 0v128h64v64h64v64h64v64h64v192h-128v-128h-128v128h64v64h256v-64h64v-192h-64v-64h-64v-64h-64v-64h-64v-64h128v64h128v-128h-384z" />
<glyph unicode="3" d="M64 0v64h-64v64h128v-64h128v192h-64v64h64v192h-128v-64h-128v64h64v64h256v-64h64v-192h-64v-64h64v-192h-64v-64h-256z" />
<glyph unicode="4" d="M256 256v128h-64v-64h-64v-64h128zM192 0v64h64v128h-256v128h64v64h64v64h64v64h64v64h128v-320h64v-64h-64v-128h64v-64h-256z" />
<glyph unicode="5" d="M64 0v64h-64v64h128v-64h128v192h-256v320h384v-64h-256v-192h192v-64h64v-192h-64v-64h-256z" />
<glyph unicode="6" d="M256 64v192h-128v-192h128zM64 0v64h-64v384h64v64h64v64h192v-64h-128v-64h-64v-128h192v-64h64v-192h-64v-64h-256z" />
<glyph unicode="7" d="M128 0v192h64v64h64v64h64v192h-192v-128h-128v192h448v-256h-64v-64h-64v-64h-64v-192h-128z" />
<glyph unicode="8" d="M256 64v192h-128v-192h128zM256 320v192h-128v-192h128zM64 0v64h-64v192h64v64h-64v192h64v64h256v-64h64v-192h-64v-64h64v-192h-64v-64h-256z" />
<glyph unicode="9" d="M256 320v192h-128v-192h128zM64 0v64h64v64h64v128h-128v64h-64v192h64v64h256v-64h64v-192h-64v-192h-64v-128h-192z" />
<glyph unicode=":" d="M128 64v128h192v-128h-192zM128 320v128h192v-128h-192z" />
<glyph unicode=";" d="M128 -64v64h64v64h-64v128h192v-192h-64v-64h-128zM128 320v128h192v-128h-192z" />
<glyph unicode="&#x3c;" d="M256 0v64h-64v64h-64v64h-64v64h-64v64h64v64h64v64h64v64h64v64h128v-64h-64v-64h-64v-64h-64v-64h-64v-64h64v-64h64v-64h64v-64h64v-64h-128z" />
<glyph unicode="=" d="M64 192v64h384v-64h-384zM64 320v64h384v-64h-384z" />
<glyph unicode="&#x3e;" d="M64 0v64h64v64h64v64h64v64h64v64h-64v64h-64v64h-64v64h-64v64h128v-64h64v-64h64v-64h64v-64h64v-64h-64v-64h-64v-64h-64v-64h-64v-64h-128z" />
<glyph unicode="?" d="M128 0v128h128v-128h-128zM128 192v128h64v64h64v128h-128v-64h-128v64h64v64h256v-64h64v-128h-64v-64h-64v-128h-128z" />
<glyph unicode="@" d="M64 0v64h-64v448h64v64h320v-64h64v-320h-256v192h128v128h-192v-448h256v-64h-320z" />
<glyph unicode="A" d="M256 256v192h-128v-192h128zM0 0v448h64v64h64v64h128v-64h64v-64h64v-448h-128v192h-128v-192h-128z" />
<glyph unicode="B" d="M320 64v192h-128v-192h128zM320 320v192h-128v-192h128zM0 0v64h64v448h-64v64h384v-64h64v-192h-64v-64h64v-192h-64v-64h-384z" />
<glyph unicode="C" d="M128 0v64h-64v64h-64v320h64v64h64v64h256v-64h64v-128h-128v128h-128v-64h-64v-320h64v-64h128v128h128v-128h-64v-64h-256z" />
<glyph unicode="D" d="M256 64v64h64v320h-64v64h-64v-448h64zM0 0v64h64v448h-64v64h320v-64h64v-64h64v-320h-64v-64h-64v-64h-320z" />
<glyph unicode="E" d="M0 0v64h64v448h-64v64h448v-128h-64v64h-192v-192h128v64h64v-192h-64v64h-128v-192h192v64h64v-128h-448z" />
<glyph unicode="F" d="M0 0v64h64v448h-64v64h448v-192h-64v64h-64v64h-128v-192h128v64h64v-192h-64v64h-128v-192h64v-64h-256z" />
<glyph unicode="G" d="M128 0v64h-64v64h-64v320h64v64h64v64h256v-64h64v-128h-128v128h-128v-64h-64v-320h64v-64h128v128h-64v64h192v-256h-320z" />
<glyph unicode="H" d="M0 0v576h128v-256h128v256h128v-576h-128v256h-128v-256h-128z" />
<glyph unicode="I" d="M64 0v64h64v448h-64v64h256v-64h-64v-448h64v-64h-256z" />
<glyph unicode="J" d="M64 0v64h-64v192h128v-192h128v448h-64v64h256v-64h-64v-448h-64v-64h-256z" />
<glyph unicode="K" d="M0 0v64h64v448h-64v64h192v-256h64v128h64v128h128v-128h-64v-128h-64v-64h64v-128h64v-128h-128v128h-64v128h-64v-256h-192z" />
<glyph unicode="L" d="M0 0v64h64v448h-64v64h256v-64h-64v-448h128v128h64v64h64v-256h-448z" />
<glyph unicode="M" d="M0 0v576h128v-64h64v-64h64v64h64v64h128v-576h-128v320h-64v-64h-64v64h-64v-320h-128z" />
<glyph unicode="N" d="M0 0v576h128v-128h64v-64h64v-64h64v256h128v-576h-128v128h-64v64h-64v64h-64v-256h-128z" />
<glyph unicode="O" d="M256 64v64h64v320h-64v64h-64v-64h-64v-320h64v-64h64zM128 0v64h-64v64h-64v320h64v64h64v64h192v-64h64v-64h64v-320h-64v-64h-64v-64h-192z" />
<glyph unicode="P" d="M320 320v192h-128v-192h128zM0 0v64h64v448h-64v64h384v-64h64v-192h-64v-64h-192v-192h64v-64h-256z" />
<glyph unicode="Q" d="M192 128v64h64v64h64v192h-64v64h-64v-64h-64v-320h64zM192 -64v64h64v64h-192v64h-64v320h64v64h64v64h192v-64h64v-64h64v-320h-64v-128h64v-64h-256z" />
<glyph unicode="R" d="M320 320v192h-128v-192h128zM0 0v64h64v448h-64v64h384v-64h64v-192h-64v-128h64v-192h-128v192h-64v64h-64v-256h-192z" />
<glyph unicode="S" d="M64 0v64h-64v128h128v-128h128v128h-64v64h-128v64h-64v192h64v64h256v-64h64v-128h-128v128h-128v-192h128v-64h64v-64h64v-128h-64v-64h-256z" />
<glyph unicode="T" d="M64 0v64h64v448h-64v-64h-64v128h384v-128h-64v64h-64v-448h64v-64h-256z" />
<glyph unicode="U" d="M64 0v64h-64v512h128v-512h128v512h128v-512h-64v-64h-256z" />
<glyph unicode="V" d="M128 0v64h-64v64h-64v448h128v-448h128v448h128v-448h-64v-64h-64v-64h-128z" />
<glyph unicode="W" d="M192 192v128h64v-128h-64zM64 0v192h-64v384h128v-384h64v-192h-128zM256 0v192h64v384h128v-384h-64v-192h-128z" />
<glyph unicode="X" d="M0 0v192h64v64h64v64h-64v64h-64v192h128v-192h128v192h128v-192h-64v-64h-64v-64h64v-64h64v-192h-128v192h-128v-192h-128z" />
<glyph unicode="Y" d="M64 0v64h64v192h-64v64h-64v256h128v-256h128v256h128v-256h-64v-64h-64v-192h64v-64h-256z" />
<glyph unicode="Z" d="M0 0v128h64v128h64v64h64v128h64v64h-128v-64h-64v-64h-64v192h448v-128h-128v-128h-64v-64h-64v-128h-64v-64h192v64h64v64h64v-192h-448z" />
<glyph unicode="[" d="M128 0v576h256v-64h-128v-448h128v-64h-256z" />
<glyph unicode="\" d="M384 0v64h-64v64h-64v64h-64v64h-64v64h-64v64h-64v128h64v-64h64v-64h64v-64h64v-64h64v-64h64v-64h64v-128h-64z" />
<glyph unicode="]" d="M128 0v64h128v448h-128v64h256v-576h-256z" />
<glyph unicode="^" d="M0 384v64h64v64h64v64h64v64h64v-64h64v-64h64v-64h64v-64h-128v64h-64v64h-64v-64h-64v-64h-128z" />
<glyph unicode="_" d="M0 -64v64h512v-64h-512z" />
<glyph unicode="`" d="M192 448v64h-64v128h128v-128h64v-64h-128z" />
<glyph unicode="a" d="M64 0v64h-64v128h64v64h192v64h-192v64h256v-64h64v-256h64v-64h-128v64h-64v128h-128v-128h128v-64h-192z" />
<glyph unicode="b" d="M0 0v64h64v448h-64v64h192v-192h192v-64h64v-256h-64v-64h-192v64h128v256h-128v-256h-64v-64h-128z" />
<glyph unicode="c" d="M64 0v64h-64v256h64v64h256v-64h64v-64h-128v64h-128v-256h128v64h128v-64h-64v-64h-256z" />
<glyph unicode="d" d="M64 0v64h-64v256h64v64h192v128h-64v64h192v-512h64v-64h-128v64h-64v256h-128v-256h128v-64h-192z" />
<glyph unicode="e" d="M256 256v64h-128v-64h128zM64 0v64h-64v256h64v64h256v-64h64v-128h-256v-128h128v64h128v-64h-64v-64h-256z" />
<glyph unicode="f" d="M0 0v64h64v192h-64v64h64v192h64v64h192v-64h64v-64h-128v64h-64v-192h128v-64h-128v-192h64v-64h-256z" />
<glyph unicode="g" d="M64 -128v64h-64v64h128v-64h128v-64h-192zM256 -64v128h-192v64h-64v192h64v64h192v-64h-128v-192h128v192h64v64h128v-64h-64v-384h-128z" />
<glyph unicode="h" d="M320 0v320h-64v64h128v-64h64v-320h-128zM0 0v64h64v448h-64v64h192v-256h64v-64h-64v-256h-192z" />
<glyph unicode="i" d="M0 0v64h128v256h-128v64h256v-320h128v-64h-384zM128 448v128h128v-128h-128z" />
<glyph unicode="j" d="M64 -128v64h-64v128h128v-128h128v384h-128v64h256v-448h-64v-64h-256zM256 448v128h128v-128h-128z" />
<glyph unicode="k" d="M0 0v64h64v448h-64v64h192v-320h64v64h64v64h128v-64h-64v-64h-64v-64h64v-64h64v-128h-128v128h-64v64h-64v-192h-192z" />
<glyph unicode="l" d="M0 0v64h128v448h-128v64h256v-512h128v-64h-384z" />
<glyph unicode="m" d="M0 0v384h384v-64h64v-320h-128v320h-64v-256h-64v256h-64v-320h-128z" />
<glyph unicode="n" d="M0 0v384h320v-64h64v-320h-128v320h-128v-320h-128z" />
<glyph unicode="o" d="M256 64v256h-128v-256h128zM64 0v64h-64v256h64v64h256v-64h64v-256h-64v-64h-256z" />
<glyph unicode="p" d="M0 -128v64h64v384h-64v64h128v-64h64v-256h128v256h-128v64h192v-64h64v-256h-64v-64h-192v-64h64v-64h-256z" />
<glyph unicode="q" d="M192 -128v64h64v64h-192v64h-64v256h64v64h192v-64h-128v-256h128v256h64v64h128v-64h-64v-384h64v-64h-256z" />
<glyph unicode="r" d="M0 0v64h64v256h-64v64h192v-128h64v-64h-64v-128h64v-64h-256zM320 192v64h-64v128h128v-64h64v-128h-128z" />
<glyph unicode="s" d="M64 0v64h-64v64h128v-64h128v64h-64v64h128v-64h64v-64h-64v-64h-256zM64 192v64h-64v64h64v64h256v-64h64v-64h-128v64h-128v-64h64v-64h-128z" />
<glyph unicode="t" d="M128 0v64h-64v256h-64v64h64v64h64v64h64v-128h192v-64h-192v-256h64v64h128v-64h-64v-64h-192z" />
<glyph unicode="u" d="M64 0v64h-64v320h128v-320h128v-64h-192zM320 0v64h-64v320h128v-320h64v-64h-128z" />
<glyph unicode="v" d="M128 0v64h-64v64h-64v256h128v-256h128v256h128v-256h-64v-64h-64v-64h-128z" />
<glyph unicode="w" d="M192 128v128h64v-128h-64zM64 0v128h-64v256h128v-256h64v-128h-128zM256 0v128h64v256h128v-256h-64v-128h-128z" />
<glyph unicode="x" d="M0 0v64h64v64h64v128h-64v64h-64v64h128v-64h64v-64h64v64h64v64h128v-64h-64v-64h-64v-128h64v-64h64v-64h-128v64h-64v64h-64v-64h-64v-64h-128z" />
<glyph unicode="y" d="M0 -128v64h192v64h64v64h-128v64h-64v256h128v-256h128v256h128v-256h-64v-128h-64v-64h-64v-64h-256z" />
<glyph unicode="z" d="M0 0v128h64v64h128v-64h-64v-64h192v64h64v-128h-384zM192 192v64h64v64h-192v-64h-64v128h384v-128h-64v-64h-128z" />
<glyph unicode="{" d="M192 0v64h-64v128h-64v64h-64v64h64v64h64v128h64v64h192v-64h-128v-128h-64v-64h-64v-64h64v-64h64v-128h128v-64h-192z" />
<glyph unicode="|" d="M192 0v256h128v-256h-128zM192 320v256h128v-256h-128z" />
<glyph unicode="}" d="M0 0v64h128v128h64v64h64v64h-64v64h-64v128h-128v64h192v-64h64v-128h64v-64h64v-64h-64v-64h-64v-128h-64v-64h-192z" />
<glyph unicode="~" d="M0 384v128h64v64h192v-64h64v-64h64v128h128v-64h-64v-128h-192v64h-64v64h-64v-128h-128z" />
<glyph unicode="&#xa1;" d="M128 0v64h-64v192h64v128h128v-128h64v-192h-64v-64h-128zM128 448v128h128v-128h-128z" />
<glyph unicode="&#xa2;" d="M128 -64v128h-64v64h-64v256h64v64h64v128h128v-128h64v-64h64v-64h-128v64h-128v-256h128v64h128v-64h-64v-64h-64v-128h-128z" />
<glyph unicode="&#xa3;" d="M0 0v128h64v128h-64v64h64v256h64v64h256v-64h64v-64h-128v64h-128v-256h192v-64h-192v-128h-64v-64h320v-64h-448z" />
<glyph unicode="&#xa4;" d="M256 128v64h-64v-64h64zM0 0v64h64v192h-64v64h128v-64h192v64h128v-64h-64v-192h64v-64h-128v64h-192v-64h-128z" />
<glyph unicode="&#xa5;" d="M128 0v128h-128v64h128v64h-128v64h64v64h-64v256h128v-256h128v256h128v-256h-64v-64h64v-64h-128v-64h128v-64h-128v-128h-128z" />
<glyph unicode="&#xa6;" d="M192 0v256h128v-256h-128zM192 320v256h128v-256h-128z" />
<glyph unicode="&#xa7;" d="M320 192v128h-128v-128h128zM64 -64v64h-64v64h128v-64h192v64h-64v64h-128v64h-64v128h64v128h-64v128h384v-64h64v-64h-128v64h-192v-64h64v-64h128v-64h64v-128h-64v-128h64v-128h-384z" />
<glyph unicode="&#xa8;" d="M0 512v64h128v-64h-128zM256 512v64h128v-64h-128z" />
<glyph unicode="&#xa9;" d="M128 0v64h192v-64h-192zM64 64v64h64v-64h-64zM320 64v64h64v-64h-64zM0 128v320h64v-320h-64zM128 128v320h192v-64h-128v-192h128v-64h-192zM384 128v320h64v-320h-64zM64 448v64h64v-64h-64zM320 448v64h64v-64h-64zM128 512v64h192v-64h-192z" />
<glyph unicode="&#xaa;" d="M0 192v64h448v-64h-448zM256 384v128h-128v-128h128zM64 320v64h-64v128h64v64h256v-64h64v-128h64v-64h-384z" />
<glyph unicode="&#xab;" d="M128 0v64h-64v64h-64v128h64v64h64v64h128v-64h-64v-64h-64v-128h64v-64h64v-64h-128zM384 0v64h-64v64h-64v128h64v64h64v64h128v-64h-64v-64h-64v-128h64v-64h64v-64h-128z" />
<glyph unicode="&#xac;" d="M256 64v192h-256v64h384v-256h-128z" />
<glyph unicode="&#xad;" d="M0 256v64h384v-64h-384z" />
<glyph unicode="&#xae;" d="M128 0v64h192v-64h-192zM64 64v64h64v-64h-64zM320 64v64h64v-64h-64zM256 128v64h64v-64h-64zM256 320v64h-64v-64h64zM0 128v320h64v-320h-64zM128 128v320h192v-192h-64v-64h-64v-64h-64zM384 128v320h64v-320h-64zM64 448v64h64v-64h-64zM320 448v64h64v-64h-64z M128 512v64h192v-64h-192z" />
<glyph unicode="&#xaf;" d="M0 512v64h384v-64h-384z" />
<glyph unicode="&#xb0;" d="M320 320v192h-128v-192h128zM128 256v64h-64v192h64v64h256v-64h64v-192h-64v-64h-256z" />
<glyph unicode="&#xb1;" d="M0 64v64h384v-64h-384zM128 192v128h-128v64h128v128h128v-128h128v-64h-128v-128h-128z" />
<glyph unicode="&#xb2;" d="M64 256v64h64v64h64v64h64v64h-192v64h256v-64h64v-64h-64v-64h-64v-64h128v-64h-320z" />
<glyph unicode="&#xb3;" d="M64 256v64h192v64h-128v64h128v64h-192v64h256v-64h64v-64h-64v-64h64v-64h-64v-64h-256z" />
<glyph unicode="&#xb4;" d="M128 448v64h64v64h64v64h128v-64h-64v-64h-64v-64h-128z" />
<glyph unicode="&#xb5;" d="M0 -128v64h64v448h128v-320h128v-64h-128v-64h-64v-64h-128zM384 0v64h-64v320h128v-320h64v-64h-128z" />
<glyph unicode="&#xb6;" d="M192 320v192h-64v-192h64zM192 0v256h-128v64h-64v192h64v64h448v-576h-128v512h-64v-512h-128z" />
<glyph unicode="&#xb7;" d="M192 256v64h128v-64h-128z" />
<glyph unicode="&#xb8;" d="M64 -128v64h64v64h128v-128h-192z" />
<glyph unicode="&#xb9;" d="M64 256v64h64v128h-64v64h64v64h128v-256h64v-64h-256z" />
<glyph unicode="&#xba;" d="M0 192v64h448v-64h-448zM256 384v128h-128v-128h128zM64 320v64h-64v128h64v64h256v-64h64v-128h-64v-64h-256z" />
<glyph unicode="&#xbb;" d="M0 0v64h64v64h64v128h-64v64h-64v64h128v-64h64v-64h64v-128h-64v-64h-64v-64h-128zM256 0v64h64v64h64v128h-64v64h-64v64h128v-64h64v-64h64v-128h-64v-64h-64v-64h-128z" />
<glyph unicode="&#xbc;" d="M384 64v128h-64v-64h-64v-64h128zM384 -64v64h-256v128h64v64h64v64h64v64h192v-384h-128zM0 64v128h64v64h64v64h-64v128h-64v64h64v64h128v-192h64v64h64v64h64v64h128v-64h-64v-64h-64v-64h-64v-64h-64v-64h-64v-64h-64v-64h-64v-64h-64z" />
<glyph unicode="&#xbd;" d="M192 -64v64h64v64h64v64h64v64h-128v64h192v-64h64v-64h-64v-64h-64v-64h128v-64h-320zM0 64v128h64v64h64v64h-64v128h-64v64h64v64h128v-192h64v64h64v64h64v64h64v-128h-64v-64h-64v-64h-64v-64h-64v-64h-64v-64h-64v-64h-64z" />
<glyph unicode="&#xbe;" d="M384 64v128h-64v-64h-64v-64h128zM384 -64v64h-256v128h64v64h64v64h64v64h192v-384h-128zM0 64v128h64v64h64v64h-128v64h128v64h-64v64h64v64h-128v64h192v-64h64v-64h-64v-64h128v64h64v64h128v-64h-64v-64h-64v-64h-64v-64h-64v-64h-64v-64h-64v-64h-64v-64h-64z" />
<glyph unicode="&#xbf;" d="M64 0v64h-64v192h64v64h64v64h128v-64h-64v-64h-64v-192h128v64h128v-64h-64v-64h-256zM128 448v128h128v-128h-128z" />
<glyph unicode="&#xc0;" d="M256 192v128h-128v-128h128zM0 0v320h64v64h64v64h128v-64h64v-64h64v-320h-128v128h-128v-128h-128zM128 512v64h-64v64h128v-64h64v-64h-128z" />
<glyph unicode="&#xc1;" d="M256 192v128h-128v-128h128zM0 0v320h64v64h64v64h128v-64h64v-64h64v-320h-128v128h-128v-128h-128zM192 512v64h64v64h128v-64h-64v-64h-128z" />
<glyph unicode="&#xc2;" d="M256 192v128h-128v-128h128zM0 0v320h64v64h64v64h128v-64h64v-64h64v-320h-128v128h-128v-128h-128zM0 512v64h64v64h256v-64h64v-64h-128v64h-128v-64h-128z" />
<glyph unicode="&#xc3;" d="M256 192v128h-128v-128h128zM0 0v320h64v64h64v64h128v-64h64v-64h64v-320h-128v128h-128v-128h-128zM0 512v64h64v64h192v-64h64v64h128v-64h-64v-64h-192v64h-64v-64h-128z" />
<glyph unicode="&#xc4;" d="M256 192v128h-128v-128h128zM0 0v320h64v64h64v64h128v-64h64v-64h64v-320h-128v128h-128v-128h-128zM0 512v64h128v-64h-128zM256 512v64h128v-64h-128z" />
<glyph unicode="&#xc5;" d="M256 192v128h-128v-128h128zM256 448v128h-128v-128h128zM0 0v320h64v128h-64v128h64v64h256v-64h64v-128h-64v-128h64v-320h-128v128h-128v-128h-128z" />
<glyph unicode="&#xc6;" d="M192 320v128h-64v-128h64zM0 0v448h64v64h64v64h320v-64h-128v-192h128v-64h-128v-192h128v-64h-256v256h-64v-256h-128z" />
<glyph unicode="&#xc7;" d="M64 -128v64h64v64h-64v64h-64v448h64v64h256v-64h64v-128h-128v128h-128v-448h128v128h128v-128h-64v-64h-64v-64h-64v-64h-128z" />
<glyph unicode="&#xc8;" d="M0 0v448h384v-128h-64v64h-192v-128h192v-64h-192v-128h192v64h64v-128h-384zM128 512v64h-64v64h128v-64h64v-64h-128z" />
<glyph unicode="&#xc9;" d="M0 0v448h384v-128h-64v64h-192v-128h192v-64h-192v-128h192v64h64v-128h-384zM192 512v64h64v64h128v-64h-64v-64h-128z" />
<glyph unicode="&#xca;" d="M0 0v448h384v-128h-64v64h-192v-128h192v-64h-192v-128h192v64h64v-128h-384zM0 512v64h64v64h256v-64h64v-64h-128v64h-128v-64h-128z" />
<glyph unicode="&#xcb;" d="M0 0v448h384v-128h-64v64h-192v-128h192v-64h-192v-128h192v64h64v-128h-384zM0 512v64h128v-64h-128zM256 512v64h128v-64h-128z" />
<glyph unicode="&#xcc;" d="M64 0v64h64v320h-64v64h256v-64h-64v-320h64v-64h-256zM128 512v64h-64v64h128v-64h64v-64h-128z" />
<glyph unicode="&#xcd;" d="M64 0v64h64v320h-64v64h256v-64h-64v-320h64v-64h-256zM128 512v64h64v64h128v-64h-64v-64h-128z" />
<glyph unicode="&#xce;" d="M64 0v64h64v320h-64v64h256v-64h-64v-320h64v-64h-256zM0 512v64h64v64h256v-64h64v-64h-128v64h-128v-64h-128z" />
<glyph unicode="&#xcf;" d="M64 0v64h64v320h-64v64h256v-64h-64v-320h64v-64h-256zM0 512v64h128v-64h-128zM256 512v64h128v-64h-128z" />
<glyph unicode="&#xd0;" d="M256 64v64h64v320h-64v64h-64v-192h64v-64h-64v-192h64zM0 0v64h64v192h-64v64h64v192h-64v64h320v-64h64v-64h64v-320h-64v-64h-64v-64h-320z" />
<glyph unicode="&#xd1;" d="M0 0v448h128v-64h64v-64h64v-64h64v192h128v-448h-128v128h-64v64h-64v64h-64v-256h-128zM0 512v64h64v64h192v-64h64v64h128v-64h-64v-64h-192v64h-64v-64h-128z" />
<glyph unicode="&#xd2;" d="M256 64v320h-128v-320h128zM64 0v64h-64v320h64v64h256v-64h64v-320h-64v-64h-256zM128 512v64h-64v64h128v-64h64v-64h-128z" />
<glyph unicode="&#xd3;" d="M256 64v320h-128v-320h128zM64 0v64h-64v320h64v64h256v-64h64v-320h-64v-64h-256zM128 512v64h64v64h128v-64h-64v-64h-128z" />
<glyph unicode="&#xd4;" d="M256 64v320h-128v-320h128zM64 0v64h-64v320h64v64h256v-64h64v-320h-64v-64h-256zM0 512v64h64v64h256v-64h64v-64h-128v64h-128v-64h-128z" />
<glyph unicode="&#xd5;" d="M256 64v320h-128v-320h128zM64 0v64h-64v320h64v64h256v-64h64v-320h-64v-64h-256zM0 512v64h64v64h192v-64h64v64h128v-64h-64v-64h-192v64h-64v-64h-128z" />
<glyph unicode="&#xd6;" d="M256 64v320h-128v-320h128zM64 0v64h-64v320h64v64h256v-64h64v-320h-64v-64h-256zM0 512v64h128v-64h-128zM256 512v64h128v-64h-128z" />
<glyph unicode="&#xd7;" d="M0 0v64h64v64h64v64h-64v64h-64v64h128v-64h64v-64h64v64h64v64h128v-64h-64v-64h-64v-64h64v-64h64v-64h-128v64h-64v64h-64v-64h-64v-64h-128z" />
<glyph unicode="&#xd8;" d="M0 0v64h64v-64h-64zM192 192v192h64v-192h-64zM256 64v64h64v256h-64v128h-64v-64h-64v-256h64v-128h64zM128 0v64h-64v64h-64v320h64v64h64v64h192v-64h64v-64h64v-320h-64v-64h-64v-64h-192zM384 512v64h64v-64h-64z" />
<glyph unicode="&#xd9;" d="M64 0v64h-64v384h128v-384h128v384h128v-384h-64v-64h-256zM128 512v64h-64v64h128v-64h64v-64h-128z" />
<glyph unicode="&#xda;" d="M64 0v64h-64v384h128v-384h128v384h128v-384h-64v-64h-256zM128 512v64h64v64h128v-64h-64v-64h-128z" />
<glyph unicode="&#xdb;" d="M64 0v64h-64v384h128v-384h128v384h128v-384h-64v-64h-256zM0 512v64h64v64h256v-64h64v-64h-128v64h-128v-64h-128z" />
<glyph unicode="&#xdc;" d="M64 0v64h-64v448h128v-448h128v448h128v-448h-64v-64h-256zM0 576v64h128v-64h-128zM256 576v64h128v-64h-128z" />
<glyph unicode="&#xdd;" d="M64 0v64h64v128h-64v64h-64v192h128v-192h128v192h128v-192h-64v-64h-64v-128h64v-64h-256zM128 512v64h64v64h128v-64h-64v-64h-128z" />
<glyph unicode="&#xde;" d="M320 192v192h-128v-192h128zM0 0v64h64v448h-64v64h256v-64h-64v-64h192v-64h64v-192h-64v-64h-192v-64h64v-64h-256z" />
<glyph unicode="&#xdf;" d="M256 128v192h-64v64h64v128h-128v-384h128zM64 -64v64h-64v512h64v64h256v-64h64v-128h-64v-64h64v-192h-64v-64h-192v-64h64v-64h-128z" />
<glyph unicode="&#xe0;" d="M64 0v64h-64v128h64v64h192v64h-192v64h256v-64h64v-256h64v-64h-128v64h-64v128h-128v-128h128v-64h-192zM128 448v64h-64v64h-64v64h128v-64h64v-64h64v-64h-128z" />
<glyph unicode="&#xe1;" d="M64 0v64h-64v128h64v64h192v64h-192v64h256v-64h64v-256h64v-64h-128v64h-64v128h-128v-128h128v-64h-192zM128 448v64h64v64h64v64h128v-64h-64v-64h-64v-64h-128z" />
<glyph unicode="&#xe2;" d="M64 0v64h-64v128h64v64h192v64h-192v64h256v-64h64v-256h64v-64h-128v64h-64v128h-128v-128h128v-64h-192zM0 448v64h64v64h64v64h128v-64h64v-64h64v-64h-128v64h-128v-64h-128z" />
<glyph unicode="&#xe3;" d="M64 0v64h-64v128h64v64h192v64h-192v64h256v-64h64v-256h64v-64h-128v64h-64v128h-128v-128h128v-64h-192zM0 448v64h64v64h192v-64h64v64h128v-64h-64v-64h-192v64h-64v-64h-128z" />
<glyph unicode="&#xe4;" d="M64 0v64h-64v128h64v64h192v64h-192v64h256v-64h64v-256h64v-64h-128v64h-64v128h-128v-128h128v-64h-192zM0 448v128h128v-128h-128zM256 448v128h128v-128h-128z" />
<glyph unicode="&#xe5;" d="M256 448v128h-64v-128h64zM64 0v64h-64v128h64v64h192v64h-192v64h64v64h-64v128h64v64h192v-64h64v-128h-64v-128h64v-256h64v-64h-128v64h-64v128h-128v-128h128v-64h-192z" />
<glyph unicode="&#xe6;" d="M384 256v64h-64v-64h64zM0 0v192h64v64h128v64h-192v64h448v-64h64v-128h-192v-128h192v-64h-256v64h-64v128h-64v-128h64v-64h-192z" />
<glyph unicode="&#xe7;" d="M64 -128v64h64v64h-64v64h-64v256h64v64h256v-64h64v-64h-128v64h-128v-256h128v64h128v-64h-64v-64h-64v-64h-64v-64h-128z" />
<glyph unicode="&#xe8;" d="M256 256v64h-128v-64h128zM64 0v64h-64v256h64v64h256v-64h64v-128h-256v-128h256v-64h-320zM128 448v64h-64v64h-64v64h128v-64h64v-64h64v-64h-128z" />
<glyph unicode="&#xe9;" d="M256 256v64h-128v-64h128zM64 0v64h-64v256h64v64h256v-64h64v-128h-256v-128h256v-64h-320zM128 448v64h64v64h64v64h128v-64h-64v-64h-64v-64h-128z" />
<glyph unicode="&#xea;" d="M256 256v64h-128v-64h128zM64 0v64h-64v256h64v64h256v-64h64v-128h-256v-128h256v-64h-320zM0 448v64h64v64h64v64h128v-64h64v-64h64v-64h-128v64h-128v-64h-128z" />
<glyph unicode="&#xeb;" d="M256 256v64h-128v-64h128zM64 0v64h-64v256h64v64h256v-64h64v-128h-256v-128h256v-64h-320zM0 448v128h128v-128h-128zM256 448v128h128v-128h-128z" />
<glyph unicode="&#xec;" d="M64 0v64h128v256h-128v64h256v-320h128v-64h-384zM192 448v64h-64v64h-64v64h128v-64h64v-64h64v-64h-128z" />
<glyph unicode="&#xed;" d="M64 0v64h128v256h-128v64h256v-320h128v-64h-384zM128 448v64h64v64h64v64h128v-64h-64v-64h-64v-64h-128z" />
<glyph unicode="&#xee;" d="M64 0v64h128v256h-128v64h256v-320h128v-64h-384zM64 448v64h64v64h64v64h64v-64h64v-64h64v-64h-128v64h-64v-64h-128z" />
<glyph unicode="&#xef;" d="M64 0v64h128v256h-128v64h256v-320h128v-64h-384zM64 448v128h128v-128h-128zM256 448v128h128v-128h-128z" />
<glyph unicode="&#xf0;" d="M320 64v192h-192v-192h192zM0 448v64h128v-64h-128zM64 0v64h-64v192h64v64h256v64h-64v64h-64v64h-64v64h128v-64h64v-64h64v-64h64v-320h-64v-64h-320zM0 576v64h128v-64h-128zM256 576v64h128v-64h-128z" />
<glyph unicode="&#xf1;" d="M0 0v384h320v-64h64v-320h-128v320h-128v-320h-128zM0 448v64h64v64h192v-64h64v64h128v-64h-64v-64h-192v64h-64v-64h-128z" />
<glyph unicode="&#xf2;" d="M256 64v256h-128v-256h128zM64 0v64h-64v256h64v64h256v-64h64v-256h-64v-64h-256zM128 448v64h-64v64h-64v64h128v-64h64v-64h64v-64h-128z" />
<glyph unicode="&#xf3;" d="M256 64v256h-128v-256h128zM64 0v64h-64v256h64v64h256v-64h64v-256h-64v-64h-256zM128 448v64h64v64h64v64h128v-64h-64v-64h-64v-64h-128z" />
<glyph unicode="&#xf4;" d="M256 64v256h-128v-256h128zM64 0v64h-64v256h64v64h256v-64h64v-256h-64v-64h-256zM0 448v64h64v64h64v64h128v-64h64v-64h64v-64h-128v64h-128v-64h-128z" />
<glyph unicode="&#xf5;" d="M256 64v256h-128v-256h128zM64 0v64h-64v256h64v64h256v-64h64v-256h-64v-64h-256zM0 448v64h64v64h192v-64h64v64h128v-64h-64v-64h-192v64h-64v-64h-128z" />
<glyph unicode="&#xf6;" d="M256 64v256h-128v-256h128zM64 0v64h-64v256h64v64h256v-64h64v-256h-64v-64h-256zM0 448v128h128v-128h-128zM256 448v128h128v-128h-128z" />
<glyph unicode="&#xf7;" d="M128 64v128h128v-128h-128zM0 256v64h384v-64h-384zM128 384v128h128v-128h-128z" />
<glyph unicode="&#xf8;" d="M256 64v128h-64v64h64v64h-128v-128h64v-64h-64v-64h128zM64 0v64h-64v256h64v64h256v-64h64v-256h-64v-64h-256z" />
<glyph unicode="&#xf9;" d="M64 0v64h-64v320h128v-320h128v-64h-192zM320 0v64h-64v320h128v-320h64v-64h-128zM128 448v64h-64v64h-64v64h128v-64h64v-64h64v-64h-128z" />
<glyph unicode="&#xfa;" d="M64 0v64h-64v320h128v-320h128v-64h-192zM320 0v64h-64v320h128v-320h64v-64h-128zM128 448v64h64v64h64v64h128v-64h-64v-64h-64v-64h-128z" />
<glyph unicode="&#xfb;" d="M64 0v64h-64v320h128v-320h128v-64h-192zM320 0v64h-64v320h128v-320h64v-64h-128zM0 448v64h64v64h64v64h128v-64h64v-64h64v-64h-128v64h-128v-64h-128z" />
<glyph unicode="&#xfc;" d="M64 0v64h-64v320h128v-320h128v-64h-192zM320 0v64h-64v320h128v-320h64v-64h-128zM0 448v128h128v-128h-128zM256 448v128h128v-128h-128z" />
<glyph unicode="&#xfd;" d="M0 -128v64h192v64h64v64h-128v64h-64v256h128v-256h128v256h128v-256h-64v-128h-64v-64h-64v-64h-256zM192 448v64h64v64h64v64h128v-64h-64v-64h-64v-64h-128z" />
<glyph unicode="&#xfe;" d="M320 192v128h-128v-128h128zM0 0v64h64v448h-64v64h256v-64h-64v-128h192v-64h64v-128h-64v-64h-192v-64h64v-64h-256z" />
<glyph unicode="&#xff;" d="M0 -128v64h192v64h64v64h-128v64h-64v256h128v-256h128v256h128v-256h-64v-128h-64v-64h-64v-64h-256zM64 448v128h128v-128h-128zM320 448v128h128v-128h-128z" />
<glyph unicode="&#x100;" d="M256 192v128h-128v-128h128zM0 0v320h64v64h64v64h128v-64h64v-64h64v-320h-128v128h-128v-128h-128zM0 512v128h384v-128h-384z" />
<glyph unicode="&#x101;" d="M64 0v64h-64v128h64v64h192v64h-192v64h256v-64h64v-256h64v-64h-128v64h-64v128h-128v-128h128v-64h-192zM0 448v128h384v-128h-384z" />
<glyph unicode="&#x102;" d="M256 192v128h-128v-128h128zM0 0v320h64v64h64v64h128v-64h64v-64h64v-320h-128v128h-128v-128h-128zM64 512v64h-64v64h128v-64h128v64h128v-64h-64v-64h-256z" />
<glyph unicode="&#x103;" d="M64 0v64h-64v128h64v64h192v64h-192v64h256v-64h64v-256h64v-64h-128v64h-64v128h-128v-128h128v-64h-192zM64 448v64h-64v64h128v-64h128v64h128v-64h-64v-64h-256z" />
<glyph unicode="&#x104;" d="M256 256v192h-128v-192h128zM256 -128v64h-64v64h64v192h-128v-192h-128v448h64v64h64v64h128v-64h64v-64h64v-448h-64v-64h64v-64h-128z" />
<glyph unicode="&#x105;" d="M320 -128v64h-64v64h64v64h-64v128h-128v-128h128v-64h-192v64h-64v128h64v64h192v64h-192v64h256v-64h64v-256h64v-64h-64v-64h64v-64h-128z" />
<glyph unicode="&#x106;" d="M64 0v64h-64v320h64v64h256v-64h64v-64h-128v64h-128v-320h128v128h128v-128h-64v-64h-256zM128 512v64h64v64h128v-64h-64v-64h-128z" />
<glyph unicode="&#x107;" d="M64 0v64h-64v256h64v64h256v-64h64v-64h-128v64h-128v-256h128v64h128v-64h-64v-64h-256zM128 448v64h64v64h64v64h128v-64h-64v-64h-64v-64h-128z" />
<glyph unicode="&#x108;" d="M64 0v64h-64v320h64v64h256v-64h64v-64h-128v64h-128v-320h128v128h128v-128h-64v-64h-256zM0 512v64h64v64h256v-64h64v-64h-128v64h-128v-64h-128z" />
<glyph unicode="&#x109;" d="M64 0v64h-64v256h64v64h256v-64h64v-64h-128v64h-128v-256h128v64h128v-64h-64v-64h-256zM0 448v64h64v64h64v64h128v-64h64v-64h64v-64h-128v64h-128v-64h-128z" />
<glyph unicode="&#x10a;" d="M64 0v64h-64v320h64v64h256v-64h64v-64h-128v64h-128v-320h128v128h128v-128h-64v-64h-256zM128 512v128h128v-128h-128z" />
<glyph unicode="&#x10b;" d="M64 0v64h-64v256h64v64h256v-64h64v-64h-128v64h-128v-256h128v64h128v-64h-64v-64h-256zM128 448v128h128v-128h-128z" />
<glyph unicode="&#x10c;" d="M64 0v64h-64v320h64v64h256v-64h64v-64h-128v64h-128v-320h128v128h128v-128h-64v-64h-256zM64 512v64h-64v64h128v-64h128v64h128v-64h-64v-64h-256z" />
<glyph unicode="&#x10d;" d="M64 0v64h-64v256h64v64h256v-64h64v-64h-128v64h-128v-256h128v64h128v-64h-64v-64h-256zM128 448v64h-64v64h-64v64h128v-64h128v64h128v-64h-64v-64h-64v-64h-128z" />
<glyph unicode="&#x10e;" d="M256 64v64h64v192h-64v64h-64v-320h64zM0 0v64h64v320h-64v64h320v-64h64v-64h64v-192h-64v-64h-64v-64h-320zM64 512v64h-64v64h128v-64h128v64h128v-64h-64v-64h-256z" />
<glyph unicode="&#x10f;" d="M64 0v64h-64v256h64v64h128v128h-64v64h192v-512h64v-64h-128v64h-64v256h-64v-256h64v-64h-128zM448 320v64h-64v192h128v-256h-64z" />
<glyph unicode="&#x110;" d="M256 64v64h64v320h-64v64h-64v-192h64v-64h-64v-192h64zM0 0v64h64v192h-64v64h64v192h-64v64h320v-64h64v-64h64v-320h-64v-64h-64v-64h-320z" />
<glyph unicode="&#x111;" d="M64 0v64h-64v192h64v64h192v64h-128v64h128v64h-64v64h192v-128h128v-64h-128v-320h64v-64h-128v64h-64v192h-128v-192h128v-64h-192z" />
<glyph unicode="&#x112;" d="M0 0v448h384v-128h-64v64h-192v-128h192v-64h-192v-128h192v64h64v-128h-384zM0 512v128h384v-128h-384z" />
<glyph unicode="&#x113;" d="M256 256v64h-128v-64h128zM64 0v64h-64v256h64v64h256v-64h64v-128h-256v-128h128v64h128v-64h-64v-64h-256zM0 448v128h384v-128h-384z" />
<glyph unicode="&#x114;" d="M0 0v448h384v-128h-64v64h-192v-128h192v-64h-192v-128h192v64h64v-128h-384zM64 512v64h-64v64h128v-64h128v64h128v-64h-64v-64h-256z" />
<glyph unicode="&#x115;" d="M256 256v64h-128v-64h128zM64 0v64h-64v256h64v64h256v-64h64v-128h-256v-128h128v64h128v-64h-64v-64h-256zM64 448v64h-64v64h128v-64h128v64h128v-64h-64v-64h-256z" />
<glyph unicode="&#x116;" d="M0 0v448h384v-128h-64v64h-192v-128h192v-64h-192v-128h192v64h64v-128h-384zM128 512v128h128v-128h-128z" />
<glyph unicode="&#x117;" d="M256 256v64h-128v-64h128zM64 0v64h-64v256h64v64h256v-64h64v-128h-256v-128h128v64h128v-64h-64v-64h-256zM128 448v128h128v-128h-128z" />
<glyph unicode="&#x118;" d="M320 -128v64h-64v64h-256v64h64v448h-64v64h448v-128h-64v64h-192v-192h128v64h64v-192h-64v64h-128v-192h192v64h64v-128h-64v-64h64v-64h-128z" />
<glyph unicode="&#x119;" d="M256 256v64h-128v-64h128zM256 -128v64h-64v64h-128v64h-64v256h64v64h256v-64h64v-128h-256v-128h128v64h128v-64h-64v-128h64v-64h-128z" />
<glyph unicode="&#x11a;" d="M0 0v448h384v-128h-64v64h-192v-128h192v-64h-192v-128h192v64h64v-128h-384zM64 512v64h-64v64h128v-64h128v64h128v-64h-64v-64h-256z" />
<glyph unicode="&#x11b;" d="M256 256v64h-128v-64h128zM64 0v64h-64v256h64v64h256v-64h64v-128h-256v-128h128v64h128v-64h-64v-64h-256zM128 448v64h-64v64h-64v64h128v-64h128v64h128v-64h-64v-64h-64v-64h-128z" />
<glyph unicode="&#x11c;" d="M128 0v64h-64v64h-64v192h64v64h64v64h256v-64h64v-64h-128v64h-128v-64h-64v-192h64v-64h128v128h-64v64h192v-256h-320zM64 512v64h64v64h256v-64h64v-64h-128v64h-128v-64h-128z" />
<glyph unicode="&#x11d;" d="M64 -128v64h-64v64h128v-64h128v-64h-192zM256 -64v128h-192v64h-64v192h64v64h192v-64h-128v-192h128v192h64v64h128v-64h-64v-384h-128zM0 448v64h64v64h64v64h128v-64h64v-64h64v-64h-128v64h-128v-64h-128z" />
<glyph unicode="&#x11e;" d="M128 0v64h-64v64h-64v192h64v64h64v64h256v-64h64v-64h-128v64h-128v-64h-64v-192h64v-64h128v128h-64v64h192v-256h-320zM64 512v64h64v64h256v-64h64v-64h-128v64h-128v-64h-128z" />
<glyph unicode="&#x11f;" d="M64 -128v64h-64v64h128v-64h128v-64h-192zM256 -64v128h-192v64h-64v192h64v64h192v-64h-128v-192h128v192h64v64h128v-64h-64v-384h-128zM64 448v64h-64v64h128v-64h128v64h128v-64h-64v-64h-256z" />
<glyph unicode="&#x120;" d="M128 0v64h-64v64h-64v192h64v64h64v64h256v-64h64v-64h-128v64h-128v-64h-64v-192h64v-64h128v128h-64v64h192v-256h-320zM192 512v128h128v-128h-128z" />
<glyph unicode="&#x121;" d="M64 -128v64h-64v64h128v-64h128v-64h-192zM256 -64v128h-192v64h-64v192h64v64h192v-64h-128v-192h128v192h64v64h128v-64h-64v-384h-128zM128 448v128h128v-128h-128z" />
<glyph unicode="&#x122;" d="M128 -128v64h64v64h-64v64h-64v64h-64v320h64v64h64v64h256v-64h64v-128h-128v128h-128v-64h-64v-320h64v-64h128v128h-64v64h192v-256h-128v-128h-192z" />
<glyph unicode="&#x123;" d="M64 -128v64h-64v64h128v-64h128v-64h-192zM256 -64v128h-192v64h-64v192h64v64h192v-64h-128v-192h128v192h64v64h128v-64h-64v-384h-128zM128 448v192h64v-64h64v-128h-128z" />
<glyph unicode="&#x124;" d="M0 0v448h128v-192h128v192h128v-448h-128v192h-128v-192h-128zM0 512v64h64v64h256v-64h64v-64h-128v64h-128v-64h-128z" />
<glyph unicode="&#x125;" d="M320 0v256h-64v64h128v-64h64v-256h-128zM0 0v64h64v320h-64v64h192v-192h64v-64h-64v-192h-192zM0 512v64h64v64h256v-64h64v-64h-128v64h-128v-64h-128z" />
<glyph unicode="&#x126;" d="M320 320v128h-128v-128h128zM64 0v448h-64v64h64v64h128v-64h128v64h128v-64h64v-64h-64v-448h-128v256h-128v-256h-128z" />
<glyph unicode="&#x127;" d="M320 0v256h-64v64h128v-64h64v-256h-128zM0 0v64h64v320h-64v64h64v64h-64v64h192v-128h64v-64h-64v-128h64v-64h-64v-192h-192z" />
<glyph unicode="&#x128;" d="M64 0v64h64v320h-64v64h256v-64h-64v-320h64v-64h-256zM0 512v64h64v64h192v-64h64v64h128v-64h-64v-64h-192v64h-64v-64h-128z" />
<glyph unicode="&#x129;" d="M0 0v64h128v256h-128v64h256v-320h128v-64h-384zM0 448v64h64v64h192v-64h64v64h128v-64h-64v-64h-192v64h-64v-64h-128z" />
<glyph unicode="&#x12a;" d="M64 0v64h64v320h-64v64h256v-64h-64v-320h64v-64h-256zM0 512v128h384v-128h-384z" />
<glyph unicode="&#x12b;" d="M0 0v64h128v256h-128v64h256v-320h128v-64h-384zM0 512v128h384v-128h-384z" />
<glyph unicode="&#x12c;" d="M64 0v64h64v320h-64v64h256v-64h-64v-320h64v-64h-256zM64 512v64h-64v64h128v-64h128v64h128v-64h-64v-64h-256z" />
<glyph unicode="&#x12d;" d="M0 0v64h128v256h-128v64h256v-320h128v-64h-384zM64 448v64h-64v64h128v-64h128v64h128v-64h-64v-64h-256z" />
<glyph unicode="&#x12e;" d="M192 -128v64h-64v64h-64v64h64v448h-64v64h256v-64h-64v-448h64v-64h-64v-64h64v-64h-128z" />
<glyph unicode="&#x12f;" d="M256 -128v64h-64v64h-192v64h128v256h-128v64h256v-320h128v-64h-64v-64h64v-64h-128zM128 448v128h128v-128h-128z" />
<glyph unicode="&#x130;" d="M64 0v64h64v320h-64v64h256v-64h-64v-320h64v-64h-256zM128 512v128h128v-128h-128z" />
<glyph unicode="&#x131;" d="M0 0v64h128v256h-128v64h256v-320h128v-64h-384z" />
<glyph unicode="&#x132;" d="M320 64v448h-128v-448h128zM0 0v64h64v448h-64v64h512v-64h-64v-448h-64v-64h-384z" />
<glyph unicode="&#x133;" d="M0 0v64h64v256h-64v64h192v-320h64v-64h-256zM192 -128v64h192v384h-128v64h256v-448h-64v-64h-256zM64 448v128h128v-128h-128zM384 448v128h128v-128h-128z" />
<glyph unicode="&#x134;" d="M64 0v64h-64v192h128v-192h128v320h-64v64h256v-64h-64v-320h-64v-64h-256zM128 512v64h64v64h256v-64h64v-64h-128v64h-128v-64h-128z" />
<glyph unicode="&#x135;" d="M64 -128v64h-64v128h128v-128h128v384h-128v64h256v-448h-64v-64h-256zM128 448v64h64v64h64v64h128v-64h64v-64h64v-64h-128v64h-128v-64h-128z" />
<glyph unicode="&#x136;" d="M128 -128v64h64v64h128v-128h-192zM0 0v64h64v448h-64v64h192v-256h64v128h64v128h128v-128h-64v-128h-64v-64h64v-128h64v-128h-128v128h-64v128h-64v-256h-192z" />
<glyph unicode="&#x137;" d="M128 -128v64h64v64h128v-128h-192zM0 0v64h64v448h-64v64h192v-320h64v64h64v64h128v-64h-64v-64h-64v-64h64v-64h64v-128h-128v128h-64v64h-64v-192h-192z" />
<glyph unicode="&#x138;" d="M0 0v64h64v256h-64v64h192v-128h64v64h64v64h128v-64h-64v-64h-64v-64h64v-64h64v-128h-128v128h-64v64h-64v-192h-192z" />
<glyph unicode="&#x139;" d="M0 0v64h64v320h-64v64h256v-64h-64v-320h128v128h64v64h64v-256h-448zM128 512v64h64v64h128v-64h-64v-64h-128z" />
<glyph unicode="&#x13a;" d="M0 0v64h128v320h-128v64h256v-384h128v-64h-384zM128 512v64h64v64h128v-64h-64v-64h-128z" />
<glyph unicode="&#x13b;" d="M128 -128v64h64v64h-192v64h64v448h-64v64h256v-64h-64v-448h128v128h64v64h64v-256h-128v-128h-192z" />
<glyph unicode="&#x13c;" d="M64 -128v64h64v64h-128v64h128v448h-128v64h256v-512h128v-64h-128v-128h-192z" />
<glyph unicode="&#x13d;" d="M0 0v64h64v448h-64v64h256v-64h-64v-448h128v128h64v64h64v-256h-448zM384 320v64h-64v192h128v-256h-64z" />
<glyph unicode="&#x13e;" d="M0 0v64h128v448h-128v64h256v-512h128v-64h-384zM384 320v64h-64v192h128v-256h-64z" />
<glyph unicode="&#x13f;" d="M320 256v128h128v-128h-128zM0 0v64h64v448h-64v64h256v-64h-64v-448h128v128h128v-192h-448z" />
<glyph unicode="&#x140;" d="M320 256v128h128v-128h-128zM0 0v64h128v448h-128v64h256v-512h128v-64h-384z" />
<glyph unicode="&#x141;" d="M0 0v64h64v64h-64v128h64v256h-64v64h256v-64h-64v-128h64v64h64v-128h-64v-64h-64v-192h128v128h64v64h64v-256h-448z" />
<glyph unicode="&#x142;" d="M0 0v64h128v128h-64v-64h-64v128h64v64h64v192h-128v64h256v-128h64v64h64v-128h-64v-64h-64v-256h128v-64h-384z" />
<glyph unicode="&#x143;" d="M0 0v448h128v-64h64v-64h64v-64h64v192h128v-448h-128v64h-64v64h-64v64h-64v-192h-128zM128 512v64h64v64h128v-64h-64v-64h-128z" />
<glyph unicode="&#x144;" d="M0 0v384h320v-64h64v-320h-128v320h-128v-320h-128zM64 448v64h64v64h64v64h128v-64h-64v-64h-64v-64h-128z" />
<glyph unicode="&#x145;" d="M128 -128v64h64v64h128v-128h-192zM0 0v576h128v-128h64v-64h64v-64h64v256h128v-576h-128v128h-64v64h-64v64h-64v-256h-128z" />
<glyph unicode="&#x146;" d="M64 -128v64h64v64h128v-128h-192zM0 0v384h320v-64h64v-320h-128v320h-128v-320h-128z" />
<glyph unicode="&#x147;" d="M0 0v448h128v-64h64v-64h64v-64h64v192h128v-448h-128v64h-64v64h-64v64h-64v-192h-128zM64 512v64h-64v64h128v-64h128v64h128v-64h-64v-64h-256z" />
<glyph unicode="&#x148;" d="M0 0v384h320v-64h64v-320h-128v320h-128v-320h-128zM128 448v64h-64v64h-64v64h128v-64h128v64h128v-64h-64v-64h-64v-64h-128z" />
<glyph unicode="&#x149;" d="M128 0v384h320v-64h64v-320h-128v320h-128v-320h-128zM64 384v64h-64v192h128v-256h-64z" />
<glyph unicode="&#x14a;" d="M256 -128v64h64v192h-64v64h-64v64h-64v-256h-128v576h128v-128h64v-64h64v-64h64v256h128v-704h-192z" />
<glyph unicode="&#x14b;" d="M192 -128v64h64v384h-128v-320h-128v384h320v-64h64v-448h-192z" />
<glyph unicode="&#x14c;" d="M256 64v320h-128v-320h128zM64 0v64h-64v320h64v64h256v-64h64v-320h-64v-64h-256zM0 512v128h384v-128h-384z" />
<glyph unicode="&#x14d;" d="M256 64v256h-128v-256h128zM64 0v64h-64v256h64v64h256v-64h64v-256h-64v-64h-256zM0 448v128h384v-128h-384z" />
<glyph unicode="&#x14e;" d="M256 64v320h-128v-320h128zM64 0v64h-64v320h64v64h256v-64h64v-320h-64v-64h-256zM64 512v64h-64v64h128v-64h128v64h128v-64h-64v-64h-256z" />
<glyph unicode="&#x14f;" d="M256 64v256h-128v-256h128zM64 0v64h-64v256h64v64h256v-64h64v-256h-64v-64h-256zM64 448v64h-64v64h128v-64h128v64h128v-64h-64v-64h-256z" />
<glyph unicode="&#x150;" d="M256 64v320h-128v-320h128zM64 0v64h-64v320h64v64h256v-64h64v-320h-64v-64h-256zM0 512v64h64v64h128v-64h-64v-64h-128zM256 512v64h64v64h128v-64h-64v-64h-128z" />
<glyph unicode="&#x151;" d="M256 64v256h-128v-256h128zM64 0v64h-64v256h64v64h256v-64h64v-256h-64v-64h-256zM0 448v64h64v64h64v64h128v-64h-64v-64h-64v-64h-128zM256 448v64h64v64h64v64h128v-64h-64v-64h-64v-64h-128z" />
<glyph unicode="&#x152;" d="M192 64v448h-64v-448h64zM64 0v64h-64v448h64v64h448v-128h-64v64h-128v-192h64v64h64v-192h-64v64h-64v-192h128v64h64v-128h-448z" />
<glyph unicode="&#x153;" d="M192 64v256h-64v-256h64zM384 256v64h-64v-64h64zM64 0v64h-64v256h64v64h384v-64h64v-128h-192v-128h64v64h128v-64h-64v-64h-384z" />
<glyph unicode="&#x154;" d="M320 256v128h-128v-128h128zM0 0v64h64v320h-64v64h384v-64h64v-128h-64v-64h64v-192h-128v128h-64v64h-64v-192h-192zM192 512v64h64v64h128v-64h-64v-64h-128z" />
<glyph unicode="&#x155;" d="M0 0v64h64v256h-64v64h192v-128h64v-64h-64v-128h64v-64h-256zM320 192v64h-64v128h128v-64h64v-128h-128zM128 448v64h64v64h64v64h128v-64h-64v-64h-64v-64h-128z" />
<glyph unicode="&#x156;" d="M128 -128v64h64v64h128v-128h-192zM320 320v192h-128v-192h128zM0 0v64h64v448h-64v64h384v-64h64v-192h-64v-128h64v-192h-128v192h-64v64h-64v-256h-192z" />
<glyph unicode="&#x157;" d="M64 -128v64h64v64h-128v64h64v256h-64v64h192v-128h64v-64h-64v-128h64v-192h-192zM320 192v64h-64v128h128v-64h64v-128h-128z" />
<glyph unicode="&#x158;" d="M320 256v128h-128v-128h128zM0 0v64h64v320h-64v64h384v-64h64v-128h-64v-64h64v-192h-128v128h-64v64h-64v-192h-192zM128 512v64h-64v64h128v-64h128v64h128v-64h-64v-64h-256z" />
<glyph unicode="&#x159;" d="M0 0v64h64v256h-64v64h192v-128h64v-64h-64v-128h64v-64h-256zM320 192v64h-64v128h128v-64h64v-128h-128zM128 448v64h-64v64h-64v64h128v-64h128v64h128v-64h-64v-64h-64v-64h-128z" />
<glyph unicode="&#x15a;" d="M64 0v64h-64v64h128v-64h128v128h-128v64h-64v64h-64v64h64v64h256v-64h64v-64h-128v64h-128v-64h64v-64h128v-64h64v-128h-64v-64h-256zM128 512v64h64v64h128v-64h-64v-64h-128z" />
<glyph unicode="&#x15b;" d="M64 0v64h-64v64h128v-64h128v64h-64v64h128v-64h64v-64h-64v-64h-256zM64 192v64h-64v64h64v64h256v-64h64v-64h-128v64h-128v-64h64v-64h-128zM128 448v64h64v64h64v64h128v-64h-64v-64h-64v-64h-128z" />
<glyph unicode="&#x15c;" d="M64 0v64h-64v64h128v-64h128v128h-128v64h-64v64h-64v64h64v64h256v-64h64v-64h-128v64h-128v-64h64v-64h128v-64h64v-128h-64v-64h-256zM0 512v64h64v64h256v-64h64v-64h-128v64h-128v-64h-128z" />
<glyph unicode="&#x15d;" d="M64 0v64h-64v64h128v-64h128v64h-64v64h128v-64h64v-64h-64v-64h-256zM64 192v64h-64v64h64v64h256v-64h64v-64h-128v64h-128v-64h64v-64h-128zM0 448v64h64v64h64v64h128v-64h64v-64h64v-64h-128v64h-128v-64h-128z" />
<glyph unicode="&#x15e;" d="M64 -128v64h64v64h-64v64h-64v128h128v-128h128v128h-64v64h-128v64h-64v192h64v64h256v-64h64v-128h-128v128h-128v-192h128v-64h64v-64h64v-128h-64v-64h-64v-128h-192z" />
<glyph unicode="&#x15f;" d="M64 -128v64h64v64h-64v64h-64v64h128v-64h128v64h-64v64h128v-64h64v-64h-64v-64h-64v-128h-192zM64 192v64h-64v64h64v64h256v-64h64v-64h-128v64h-128v-64h64v-64h-128z" />
<glyph unicode="&#x160;" d="M64 0v64h-64v64h128v-64h128v128h-128v64h-64v64h-64v64h64v64h256v-64h64v-64h-128v64h-128v-64h64v-64h128v-64h64v-128h-64v-64h-256zM64 512v64h-64v64h128v-64h128v64h128v-64h-64v-64h-256z" />
<glyph unicode="&#x161;" d="M64 0v64h-64v64h128v-64h128v64h-64v64h128v-64h64v-64h-64v-64h-256zM64 192v64h-64v64h64v64h256v-64h64v-64h-128v64h-128v-64h64v-64h-128zM128 448v64h-64v64h-64v64h128v-64h128v64h128v-64h-64v-64h-64v-64h-128z" />
<glyph unicode="&#x162;" d="M64 -128v64h64v64h-64v64h64v448h-64v-64h-64v128h384v-128h-64v64h-64v-448h64v-64h-64v-128h-192z" />
<glyph unicode="&#x163;" d="M64 -128v64h64v128h-64v256h-64v64h64v64h64v64h64v-128h192v-64h-192v-256h64v64h128v-64h-64v-64h-64v-128h-192z" />
<glyph unicode="&#x164;" d="M64 0v64h64v320h-64v-64h-64v128h384v-128h-64v64h-64v-320h64v-64h-256zM64 512v64h-64v64h128v-64h128v64h128v-64h-64v-64h-256z" />
<glyph unicode="&#x165;" d="M128 0v64h-64v256h-64v64h64v64h64v64h64v-128h192v-64h-192v-256h64v64h128v-64h-64v-64h-192zM448 320v64h-64v192h128v-256h-64z" />
<glyph unicode="&#x166;" d="M64 0v64h64v192h-64v64h64v192h-64v-64h-64v128h384v-128h-64v64h-64v-192h64v-64h-64v-192h64v-64h-256z" />
<glyph unicode="&#x167;" d="M128 0v64h-64v128h-64v64h64v64h-64v64h64v64h64v64h64v-128h192v-64h-192v-64h128v-64h-128v-128h64v64h128v-64h-64v-64h-192z" />
<glyph unicode="&#x168;" d="M64 0v64h-64v384h128v-384h128v384h128v-384h-64v-64h-256zM0 512v64h64v64h192v-64h64v64h128v-64h-64v-64h-192v64h-64v-64h-128z" />
<glyph unicode="&#x169;" d="M64 0v64h-64v320h128v-320h128v-64h-192zM320 0v64h-64v320h128v-320h64v-64h-128zM0 448v64h64v64h192v-64h64v64h128v-64h-64v-64h-192v64h-64v-64h-128z" />
<glyph unicode="&#x16a;" d="M64 0v64h-64v384h128v-384h128v384h128v-384h-64v-64h-256zM0 512v128h384v-128h-384z" />
<glyph unicode="&#x16b;" d="M64 0v64h-64v320h128v-320h128v-64h-192zM320 0v64h-64v320h128v-320h64v-64h-128zM0 448v128h384v-128h-384z" />
<glyph unicode="&#x16c;" d="M64 0v64h-64v384h128v-384h128v384h128v-384h-64v-64h-256zM64 512v64h-64v64h128v-64h128v64h128v-64h-64v-64h-256z" />
<glyph unicode="&#x16d;" d="M64 0v64h-64v320h128v-320h128v-64h-192zM320 0v64h-64v320h128v-320h64v-64h-128zM64 448v64h-64v64h128v-64h128v64h128v-64h-64v-64h-256z" />
<glyph unicode="&#x16e;" d="M256 64v320h-128v-320h128zM256 448v128h-128v-128h128zM64 0v64h-64v512h64v64h256v-64h64v-512h-64v-64h-256z" />
<glyph unicode="&#x16f;" d="M64 0v64h-64v256h128v-256h128v-64h-192zM320 0v64h-64v256h128v-256h64v-64h-128zM256 448v128h-128v-128h128zM64 384v64h-64v128h64v64h256v-64h64v-128h-64v-64h-256z" />
<glyph unicode="&#x170;" d="M64 0v64h-64v384h128v-384h128v384h128v-384h-64v-64h-256zM0 512v64h64v64h128v-64h-64v-64h-128zM256 512v64h64v64h128v-64h-64v-64h-128z" />
<glyph unicode="&#x171;" d="M64 0v64h-64v320h128v-320h128v-64h-192zM320 0v64h-64v320h128v-320h64v-64h-128zM0 448v64h64v64h64v64h128v-64h-64v-64h-64v-64h-128zM256 448v64h64v64h64v64h128v-64h-64v-64h-64v-64h-128z" />
<glyph unicode="&#x172;" d="M192 -128v64h-64v64h-64v64h-64v512h128v-512h128v512h128v-512h-64v-64h-64v-64h64v-64h-128z" />
<glyph unicode="&#x173;" d="M64 0v64h-64v320h128v-320h128v-64h-192zM320 -128v64h-64v64h64v64h-64v320h128v-320h64v-64h-64v-64h64v-64h-128z" />
<glyph unicode="&#x174;" d="M192 192v128h64v-128h-64zM64 0v192h-64v256h128v-256h64v-192h-128zM256 0v192h64v256h128v-256h-64v-192h-128zM0 512v64h64v64h256v-64h64v-64h-128v64h-128v-64h-128z" />
<glyph unicode="&#x175;" d="M192 128v128h64v-128h-64zM64 0v128h-64v256h128v-256h64v-128h-128zM256 0v128h64v256h128v-256h-64v-128h-128zM0 448v64h64v64h64v64h128v-64h64v-64h64v-64h-128v64h-128v-64h-128z" />
<glyph unicode="&#x176;" d="M64 0v64h64v192h-64v64h-64v128h128v-128h128v128h128v-128h-64v-64h-64v-192h64v-64h-256zM0 512v64h64v64h256v-64h64v-64h-128v64h-128v-64h-128z" />
<glyph unicode="&#x177;" d="M0 -128v64h192v64h64v64h-128v64h-64v256h128v-256h128v256h128v-256h-64v-128h-64v-64h-64v-64h-256zM64 448v64h64v64h64v64h128v-64h64v-64h64v-64h-128v64h-128v-64h-128z" />
<glyph unicode="&#x178;" d="M64 0v64h64v192h-64v64h-64v192h128v-192h128v192h128v-192h-64v-64h-64v-192h64v-64h-256zM0 576v64h128v-64h-128zM256 576v64h128v-64h-128z" />
<glyph unicode="&#x179;" d="M0 0v64h64v64h64v64h64v64h64v64h64v64h-192v-64h-128v128h448v-128h-64v-64h-64v-64h-64v-64h-64v-64h128v64h64v64h64v-192h-448zM192 512v64h64v64h128v-64h-64v-64h-128z" />
<glyph unicode="&#x17a;" d="M0 0v128h64v64h128v-64h-64v-64h192v64h64v-128h-384zM192 192v64h64v64h-192v-64h-64v128h384v-128h-64v-64h-128zM128 448v64h64v64h64v64h128v-64h-64v-64h-64v-64h-128z" />
<glyph unicode="&#x17b;" d="M0 0v64h64v64h64v64h64v64h64v64h64v64h-192v-64h-128v128h448v-128h-64v-64h-64v-64h-64v-64h-64v-64h128v64h64v64h64v-192h-448zM192 512v128h128v-128h-128z" />
<glyph unicode="&#x17c;" d="M0 0v128h64v64h128v-64h-64v-64h192v64h64v-128h-384zM192 192v64h64v64h-192v-64h-64v128h384v-128h-64v-64h-128zM128 448v128h128v-128h-128z" />
<glyph unicode="&#x17d;" d="M0 0v64h64v64h64v64h64v64h64v64h64v64h-192v-64h-128v128h448v-128h-64v-64h-64v-64h-64v-64h-64v-64h128v64h64v64h64v-192h-448zM64 512v64h-64v64h128v-64h128v64h128v-64h-64v-64h-256z" />
<glyph unicode="&#x17e;" d="M0 0v128h64v64h128v-64h-64v-64h192v64h64v-128h-384zM192 192v64h64v64h-192v-64h-64v128h384v-128h-64v-64h-128zM64 448v64h-64v64h128v-64h128v64h128v-64h-64v-64h-256z" />
<glyph unicode="&#x17f;" d="M0 0v64h64v192h-64v64h64v192h64v64h192v-64h64v-64h-128v64h-64v-512h-192z" />
<glyph unicode="&#x2014;" d="M0 256v64h448v-64h-448z" />
<glyph unicode="&#x2018;" d="M64 320v64h64v192h128v-192h-64v-64h-128z" />
<glyph unicode="&#x2019;" d="M64 320v64h64v192h128v-192h-64v-64h-128z" />
<glyph unicode="&#x201a;" d="M128 0v128h192v-128h-192z" />
<glyph unicode="&#x201b;" d="M64 320v64h64v192h128v-192h-64v-64h-128z" />
<glyph unicode="&#x201c;" d="M128 320v64h-64v192h128v-256h-64zM320 320v256h128v-192h-64v-64h-64z" />
<glyph unicode="&#x201d;" d="M128 320v64h-64v192h128v-256h-64zM320 320v256h128v-192h-64v-64h-64z" />
<glyph unicode="&#x201e;" d="M128 0v64h-64v192h128v-256h-64zM320 0v256h128v-192h-64v-64h-64z" />
<glyph unicode="&#x2020;" d="M192 0v256h-192v64h192v256h128v-256h192v-64h-192v-256h-128z" />
<glyph unicode="&#x2026;" d="M0 0v128h128v-128h-128zM192 0v128h128v-128h-128zM384 0v128h128v-128h-128z" />
<glyph unicode="&#x2039;" d="M256 0v64h-64v64h-64v64h-64v64h-64v64h64v64h64v64h64v64h64v64h128v-64h-64v-64h-64v-64h-64v-64h-64v-64h64v-64h64v-64h64v-64h64v-64h-128z" />
<glyph unicode="&#x203a;" d="M0 0v64h64v64h64v64h64v64h64v64h-64v64h-64v64h-64v64h-64v64h128v-64h64v-64h64v-64h64v-64h64v-64h-64v-64h-64v-64h-64v-64h-64v-64h-128z" />
<glyph unicode="&#x20ac;" d="M128 0v64h-64v64h-64v320h64v64h64v64h256v-64h64v-128h-128v128h-128v-64h-64v-64h128v-64h-128v-64h128v-64h-128v-64h64v-64h128v128h128v-128h-64v-64h-256z" />
<glyph unicode="&#x2122;" d="M64 256v256h-64v64h192v-64h-64v-256h-64zM256 256v320h256v-320h-64v64h-128v-64h-64z" />
<glyph unicode="&#x25fc;" horiz-adv-x="385" d="M0 385h385v-385h-385v385z" />
<glyph unicode="&#xfb01;" d="M320 0v448h128v-448h-128zM64 0v384h-64v64h64v128h64v64h128v-64h-64v-128h64v-64h-64v-384h-128zM320 512v128h128v-128h-128z" />
<glyph unicode="&#xfb02;" d="M64 0v384h-64v64h64v128h64v64h128v-64h-64v-128h64v-64h-64v-384h-128zM320 0v640h128v-640h-128z" />
</font>
</defs>
</svg>
